<?xml version="1.0" standalone="no"?>
<!DOCTYPE svg PUBLIC "-//W3C//DTD SVG 20010904//EN"
 "http://www.w3.org/TR/2001/REC-SVG-20010904/DTD/svg10.dtd">
<svg version="1.0" xmlns="http://www.w3.org/2000/svg"
 width="441.000000pt" height="443.000000pt" viewBox="0 0 441.000000 443.000000"
 preserveAspectRatio="xMidYMid meet">
<metadata>
Created by potrace 1.16, written by Peter Selinger 2001-2019
</metadata>
<g transform="translate(0.000000,443.000000) scale(0.100000,-0.100000)"
fill="#000000" stroke="none">
<path d="M1990 4399 c-393 -40 -774 -190 -1100 -432 -122 -91 -336 -305 -427
-427 -156 -210 -275 -443 -348 -686 -203 -668 -75 -1385 348 -1954 91 -122
305 -336 427 -427 210 -156 443 -275 686 -348 668 -203 1385 -75 1954 348 122
91 336 305 427 427 156 210 275 443 348 686 203 668 75 1385 -348 1954 -91
122 -305 336 -427 427 -448 333 -997 487 -1540 432z m421 -59 c277 -28 518
-98 761 -222 914 -464 1368 -1509 1082 -2494 -25 -89 -93 -269 -117 -312 -13
-22 -33 8 -362 510 -671 1024 -592 910 -618 893 -12 -8 -155 -258 -332 -580
-170 -310 -312 -564 -315 -565 -3 0 -271 433 -596 963 -326 529 -597 962 -603
962 -6 0 -107 -209 -224 -465 -117 -256 -343 -750 -502 -1098 -248 -542 -292
-630 -302 -615 -19 26 -88 207 -117 307 -217 748 -11 1551 539 2101 449 449
1083 677 1706 615z m-857 -1279 c130 -212 233 -388 229 -392 -14 -14 -113 -49
-137 -49 -17 0 -37 16 -66 49 -68 82 -94 79 -158 -22 -46 -72 -66 -92 -87 -83
-8 3 -44 50 -79 104 -93 145 -134 168 -207 119 -68 -46 -82 -87 106 323 59
129 118 259 132 289 13 29 25 52 27 50 2 -2 110 -177 240 -388z m-397 -303
c11 -13 46 -62 78 -111 58 -89 86 -117 116 -117 20 0 61 45 108 118 18 28 38
52 44 52 6 0 34 -25 63 -56 52 -57 53 -57 98 -51 25 4 68 18 95 31 l48 25 268
-437 c470 -766 425 -697 445 -675 10 10 159 273 331 586 246 446 315 565 325
555 6 -7 219 -330 473 -718 l461 -704 -36 -66 c-199 -364 -523 -676 -902 -868
-963 -489 -2132 -181 -2736 721 -34 52 -77 123 -95 158 l-32 64 319 696 c311
678 321 697 372 745 85 80 120 92 157 52z"/>
</g>
</svg>
